<svg version="1.1" id="Layer_1" xmlns="http://www.w3.org/2000/svg" xmlns:xlink="http://www.w3.org/1999/xlink" x="0px" y="0px"
	 width="100%" viewBox="209.085281 231.256897 612.501816 562.031721" xml:space="preserve">
<path fill="#F5F5F4" opacity="1.000000" stroke="none"
	d="
M248.459137,660.512146 
	C236.572662,654.954956 228.629257,646.468079 223.981186,634.403992 
	C215.145966,611.472046 211.158264,587.580444 209.085281,563.308105
	C207.281738,542.190613 207.139267,521.091064 210.570984,500.021698
	C213.085815,484.581543 221.564789,473.831512 234.949646,466.744934
	C239.278427,464.453064 240.751663,461.806732 241.293381,456.929108
	C251.909668,361.338684 303.450684,297.158783 392.170135,262.135742
	C405.252289,256.971436 419.223175,254.059708 432.778839,250.091904
	C434.189880,249.678879 436.048645,249.594528 436.896484,248.642441
	C446.287750,238.096390 458.715759,235.508835 471.994080,234.329865
	C503.972198,231.490540 535.871582,231.256897 567.735962,235.694763
	C575.478271,236.773087 582.157532,239.917587 587.367371,245.627243
	C590.268188,248.806366 593.664368,250.010757 597.655945,250.896271
	C646.903381,261.821869 690.403259,283.590332 725.787720,320.079712
	C760.489929,355.865509 780.009460,399.045166 785.978333,448.295807
	C787.147339,457.941406 788.761536,465.197540 798.602112,470.363770
	C813.027771,477.937134 817.614502,492.387085 818.807556,507.806519
	C822.116394,550.573120 818.797913,592.499634 804.495300,633.391174
	C798.459717,650.647034 786.104248,659.273926 769.867004,663.903687
	C765.526855,665.141174 762.809692,666.976074 760.532593,670.834900
	C747.586853,692.773560 729.541748,709.927856 708.694397,724.150818
	C665.874939,753.364258 618.737793,772.924377 568.483521,784.882446
	C551.856018,788.838928 534.831055,791.880798 517.821411,793.208618
	C506.583740,794.085815 494.923492,791.857300 483.668762,789.822815
	C423.815979,779.003357 368.106750,757.616211 317.866486,722.969971
	C296.798492,708.441345 279.083618,690.514038 265.824158,668.401733
	C264.877777,666.823425 262.831116,665.622375 261.033417,664.894836
	C257.038757,663.278076 252.877426,662.073120 248.459137,660.512146
M804.965332,527.855652
	C804.363464,532.556335 803.761536,537.257019 802.902161,542.768860
	C802.083252,549.869690 801.264282,556.970520 800.167542,564.904907
	C799.646484,569.913574 799.125427,574.922180 798.262207,580.650940
	C797.853149,586.108948 797.444031,591.566956 796.696716,597.762512
	C796.248596,602.151123 795.800537,606.539673 795.093994,611.692871
	C794.720398,613.159851 794.346741,614.626831 793.239197,615.625122
	C793.427917,611.188782 793.560425,606.749207 793.815491,602.316711
	C794.703308,586.891968 795.633545,571.469666 796.804688,555.291138
	C797.166626,550.846436 797.528564,546.401794 798.151489,541.148376
	C798.587708,537.122620 799.023987,533.096924 799.754395,528.336609
	C800.479309,523.226990 801.204224,518.117371 802.184143,512.254211
	C802.980103,508.864899 803.776062,505.475586 804.913818,501.455750
	C808.614258,495.562134 807.189392,490.468689 802.850220,485.482941
	C796.584961,478.284210 789.052063,473.088501 779.943909,469.244659
	C779.575806,468.187500 779.207764,467.130341 778.968323,465.201050
	C778.219421,457.920624 777.802917,450.588043 776.669678,443.367950
	C766.574768,379.053467 734.297791,328.995270 679.624573,293.604004
	C657.829590,279.495605 634.301941,269.109222 608.474060,262.321350
	C607.039612,261.948120 605.625061,261.444641 604.167603,261.222687
	C594.109375,259.690674 584.582825,257.117645 577.734375,248.737289
	C576.950317,247.777908 575.560181,247.313828 573.819946,246.153137
	C570.593079,245.416458 567.399841,244.441589 564.134094,243.980408
	C535.716309,239.967407 507.192719,240.048569 478.678619,242.476166
	C470.346588,243.185516 462.130432,245.256226 453.178925,246.886490
	C449.767212,249.525635 446.459503,252.316620 442.907135,254.750473
	C440.542969,256.370239 437.966827,258.175018 435.251282,258.711823
	C405.196930,264.652496 377.129486,275.601318 351.217316,291.904602
	C287.037689,332.284882 254.640259,391.347473 248.982864,466.825317
	C248.506149,468.138306 248.029449,469.451324 246.830612,470.785339
	C240.908005,474.325012 234.651260,477.416168 229.146851,481.517151
	C222.175980,486.710663 219.215363,493.556458 223.994446,502.793030
	C224.797913,506.301086 225.601379,509.809143 226.408829,514.153015
	C227.295334,519.116943 228.181854,524.080872 228.952576,529.868958
	C229.572693,533.935608 230.192825,538.002319 230.709579,542.936707
	C231.214584,546.982178 231.719589,551.027710 232.089066,555.902100
	C232.225143,557.386597 232.421356,558.868408 232.488205,560.356018
	C233.336761,579.239258 234.166718,598.123230 234.371155,616.785095
	C234.131088,615.300171 233.891006,613.815186 233.720108,611.372803
	C233.207672,607.241089 232.695251,603.109314 232.323502,598.070435
	C231.757599,592.126221 231.191681,586.182068 230.634933,579.297852
	C229.998627,574.883240 229.362320,570.468567 228.805344,565.226196
	C227.801666,557.800537 226.797989,550.374878 225.857254,542.144775
	C225.143600,537.456848 224.429947,532.768982 223.861588,527.247742
	C222.671494,517.982300 221.481415,508.716888 220.291336,499.451447
	C219.821716,499.448517 219.352112,499.445587 218.882492,499.442657
	C218.253159,507.963470 217.623825,516.484253 216.788773,525.913696
	C216.851486,530.273376 216.914215,534.633118 216.709457,539.897766
	C216.981659,546.202576 217.253845,552.507324 217.448288,559.759644
	C218.000504,564.164368 218.552719,568.569031 218.931854,573.830139
	C219.917252,580.197754 220.902649,586.565308 221.829071,593.786011
	C222.934830,598.844238 224.040588,603.902466 225.091125,609.738892
	C227.330841,616.513062 229.570557,623.287170 231.890060,630.811707
	C236.421143,644.765259 252.902176,656.996338 267.695404,657.036133
	C268.413910,657.156799 269.132385,657.277527 269.970886,658.062439
	C280.594696,677.836243 295.081024,694.317078 312.566193,708.288940
	C327.820282,720.477905 344.347839,730.638916 361.691071,739.520935
	C388.059631,753.025024 415.375977,764.124268 444.744781,772.148315
	C457.122375,775.017395 469.500000,777.886475 482.569916,781.044189
	C504.112823,786.040771 525.625549,785.979187 547.679688,780.671509
	C547.842468,780.571777 548.005310,780.472046 548.810242,780.459473
	C549.207642,780.301392 549.605042,780.143311 550.795227,780.021118
	C561.539917,777.389038 572.284607,774.756958 583.809753,772.171936
	C622.474731,761.280884 659.076050,745.584290 693.144653,724.291931
	C720.204651,707.379883 743.466736,686.552429 758.872986,657.261169
	C759.584656,657.194031 760.296387,657.126953 761.760742,657.456726
	C777.295349,653.397156 791.996948,648.288574 796.797546,629.588684
	C798.820251,622.710388 800.843018,615.832092 803.132996,608.224487
	C804.037354,603.827332 804.941772,599.430176 806.118896,594.262268
	C807.061279,587.504089 808.003662,580.745850 809.211182,573.198486
	C809.664368,568.489990 810.117615,563.781433 810.777893,558.153992
	C810.926758,551.735657 811.075623,545.317383 811.559082,538.042603
	C811.502563,534.068909 811.446106,530.095215 811.587097,525.299500
	C810.826538,516.960388 810.065979,508.621246 809.305420,500.282104
	C808.884766,500.312714 808.464172,500.343323 808.043518,500.373962
	C807.095825,509.268463 806.148193,518.162964 804.965332,527.855652
z"/>
<path fill="#383837" opacity="1.000000" stroke="none"
	d="
M547.106934,780.659119
	C525.625549,785.979187 504.112823,786.040771 482.124329,780.523132
	C474.918701,777.325073 468.212616,774.500854 461.389374,771.995911
	C428.139893,759.789307 396.886292,743.805542 368.114685,723.069031
	C351.053772,710.772766 335.572235,696.836487 322.509888,680.251648
	C307.210266,660.826233 296.174683,639.168701 288.538879,615.772095
	C285.559021,606.641724 282.587311,597.337708 281.241669,587.880920
	C278.563202,569.057434 277.690948,549.969788 274.818665,531.182983
	C271.543640,509.761963 267.819427,488.268402 256.066498,468.909668
	C271.708405,356.774841 352.537445,292.151611 442.024597,267.201050
	C455.765747,331.119720 462.586029,396.003326 470.577057,460.726044
	C470.940521,459.196075 470.990631,457.702209 470.933136,456.212463
	C469.906647,429.618866 468.950348,403.022156 467.788849,376.434387
	C467.332001,365.977142 466.617493,355.521027 465.654999,345.098145
	C463.914093,326.246307 462.135284,307.391968 459.920197,288.591949
	C458.269867,274.585419 455.906799,260.662872 453.861176,246.702942
	C462.130432,245.256226 470.346588,243.185516 478.678619,242.476166
	C507.192719,240.048569 535.716309,239.967407 564.134094,243.980408
	C567.399841,244.441589 570.593079,245.416458 574.049561,246.834671
	C571.821777,266.948700 568.770508,286.328491 567.041687,305.825592
	C564.210632,337.751648 562.153503,369.748047 559.954285,401.727448
	C559.224487,412.339783 558.923096,422.987976 558.681396,433.625580
	C558.476196,442.655670 558.639038,451.694153 558.639038,461.495361
	C565.493164,395.925262 573.353882,331.242249 586.440247,266.790222
	C592.272339,268.546265 597.635864,270.161255 603.322876,271.956116
	C620.978882,280.156494 638.974854,287.009338 655.522400,296.411346
	C710.101379,327.422211 747.464905,372.785004 765.111816,433.442413
	C768.473572,444.997467 769.761414,457.155853 772.016174,469.406067
	C770.345642,473.364532 768.172668,476.808929 767.073853,480.567383
	C763.356873,493.281677 759.201233,505.951843 756.739319,518.928406
	C753.413818,536.456848 751.424011,554.242798 749.025696,571.940552
	C748.182373,578.163696 748.247253,584.526611 747.165222,590.697388
	C743.990417,608.804504 737.460144,625.859131 729.732361,642.439087
	C713.963806,676.270996 689.705811,702.897034 659.438293,724.304749
	C627.140503,747.148254 591.741638,763.800598 554.506165,776.796326
	C552.837280,777.378845 551.496216,778.900818 550.002441,779.985229
	C549.605042,780.143311 549.207642,780.301392 548.350037,780.217834
	C547.628906,780.203857 547.367920,780.431519 547.106934,780.659119
M405.652618,668.234253
	C422.885773,674.846741 440.045074,681.664062 457.405792,687.922546
	C461.560577,689.420410 463.960266,691.552429 465.876526,695.378906
	C472.356628,708.318909 479.242096,721.055237 485.843689,733.935486
	C487.595642,737.353699 489.821747,739.389832 493.910736,739.366150
	C507.720032,739.286316 521.530701,739.336487 535.340027,739.440247
	C539.165161,739.468933 541.384766,737.672974 543.091614,734.371277
	C550.197205,720.626221 557.380310,706.918762 564.783752,693.333008
	C565.828674,691.415466 568.011475,689.487061 570.067200,688.846985
	C596.677856,680.561035 622.231934,669.758972 646.996826,657.039673
	C669.252563,645.609131 690.822388,633.057861 710.051636,616.906982
	C712.983765,614.444214 715.925842,611.124878 717.131348,607.608032
	C730.290955,569.216248 736.258240,529.805420 733.122009,489.168121
	C732.789673,484.861420 731.060791,482.186676 727.325134,480.137238
	C709.012207,470.090454 689.324951,465.109619 668.595642,464.108093
	C641.580933,462.802917 616.126099,469.625183 591.339417,479.554626
	C565.427368,489.934875 541.352356,503.759583 518.125732,519.108826
	C515.501709,520.842896 513.782654,520.820129 511.125183,519.145203
	C499.584930,511.871948 488.076721,504.499664 476.152771,497.892670
	C446.272736,481.336304 415.185577,467.817596 380.698242,464.572723
	C353.044220,461.970795 326.635895,466.758179 301.922729,479.879059
	C298.085358,481.916412 296.014679,484.535370 295.657867,489.156952
	C292.491974,530.163147 298.887360,569.830078 311.996552,608.581543
	C312.609619,610.393738 313.710571,612.409668 315.194641,613.500000
	C326.968628,622.150452 338.890625,630.599426 351.164734,639.671143
	C369.122162,649.084534 387.079620,658.497925 405.652618,668.234253
z"/>
<path fill="#67A865" opacity="1.000000" stroke="none"
	d="
M453.520050,246.794708
	C455.906799,260.662872 458.269867,274.585419 459.920197,288.591949
	C462.135284,307.391968 463.914093,326.246307 465.654999,345.098145
	C466.617493,355.521027 467.332001,365.977142 467.788849,376.434387
	C468.950348,403.022156 469.906647,429.618866 470.933136,456.212463
	C470.990631,457.702209 470.940521,459.196075 470.577057,460.726044
	C462.586029,396.003326 455.765747,331.119720 442.024597,267.201050
	C352.537445,292.151611 271.708405,356.774841 255.724579,468.801636
	C253.293732,468.131317 251.235931,467.140106 249.178131,466.148865
	C254.640259,391.347473 287.037689,332.284882 351.217316,291.904602
	C377.129486,275.601318 405.196930,264.652496 435.251282,258.711823
	C437.966827,258.175018 440.542969,256.370239 442.907135,254.750473
	C446.459503,252.316620 449.767212,249.525635 453.520050,246.794708
z"/>
<path fill="#212020" opacity="1.000000" stroke="none"
	d="
M550.398804,780.003174
	C551.496216,778.900818 552.837280,777.378845 554.506165,776.796326
	C591.741638,763.800598 627.140503,747.148254 659.438293,724.304749
	C689.705811,702.897034 713.963806,676.270996 729.732361,642.439087
	C737.460144,625.859131 743.990417,608.804504 747.165222,590.697388
	C748.247253,584.526611 748.182373,578.163696 749.025696,571.940552
	C751.424011,554.242798 753.413818,536.456848 756.739319,518.928406
	C759.201233,505.951843 763.356873,493.281677 767.073853,480.567383
	C768.172668,476.808929 770.345642,473.364532 772.368774,469.413727
	C774.754028,468.058563 776.796875,467.065887 778.839661,466.073181
	C779.207764,467.130341 779.575806,468.187500 779.953857,469.937012
	C778.015503,476.712097 776.067200,482.794830 773.786621,489.074585
	C772.301147,492.817200 771.148071,496.362854 769.939087,500.298553
	C768.612488,506.073547 767.341736,511.458496 766.046143,517.274414
	C765.339966,521.754272 764.658508,525.803284 763.842651,530.233765
	C763.138428,535.075623 762.568604,539.535950 761.837158,544.365601
	C760.783691,550.763428 759.641907,556.767761 759.057556,562.825928
	C758.137695,572.362793 757.107788,581.930542 757.002136,591.494873
	C756.839966,606.174194 757.114380,620.876526 757.820984,635.539307
	C758.168396,642.747253 759.901917,649.888428 761.008057,657.059814
	C760.296387,657.126953 759.584656,657.194031 758.400269,657.041260
	C756.652954,654.951416 755.378296,653.081543 753.721497,650.651001
	C752.637939,652.389465 751.805603,653.556885 751.142700,654.813660
	C741.162537,673.735413 727.437927,689.656372 711.085693,703.197388
	C685.812927,724.125427 657.097534,739.554138 627.417908,753.085571
	C614.345337,759.045532 600.431824,763.149475 586.978760,768.301514
	C585.405029,768.904175 584.333618,770.818604 583.029358,772.124878
	C572.284607,774.756958 561.539917,777.389038 550.398804,780.003174
z"/>
<path fill="#202020" opacity="1.000000" stroke="none"
	d="
M249.080505,466.487091
	C251.235931,467.140106 253.293732,468.131317 255.693451,469.230530
	C267.819427,488.268402 271.543640,509.761963 274.818665,531.182983
	C277.690948,549.969788 278.563202,569.057434 281.241669,587.880920
	C282.587311,597.337708 285.559021,606.641724 288.538879,615.772095
	C296.174683,639.168701 307.210266,660.826233 322.509888,680.251648
	C335.572235,696.836487 351.053772,710.772766 368.114685,723.069031
	C396.886292,743.805542 428.139893,759.789307 461.389374,771.995911
	C468.212616,774.500854 474.918701,777.325073 481.778198,780.378784
	C469.500000,777.886475 457.122375,775.017395 444.331238,771.633545
	C442.645813,770.146423 441.511475,768.836365 440.080841,768.253906
	C425.510712,762.321289 410.578186,757.177856 396.354858,750.515930
	C369.416626,737.898621 343.312073,723.680847 319.969543,704.974060
	C305.378723,693.280762 292.336212,680.125549 282.869324,663.791504
	C280.265076,659.298157 277.767792,654.742798 275.055359,649.920593
	C273.051788,652.799255 271.451355,655.098755 269.850891,657.398193
	C269.132385,657.277527 268.413910,657.156799 267.341614,656.548828
	C277.491852,618.760010 273.062805,581.330627 267.898285,543.508057
	C266.901581,538.702271 265.953888,534.283936 265.004150,529.440918
	C264.318390,524.985352 263.634644,520.954407 262.950073,516.523865
	C261.638153,510.728943 260.327057,505.333649 259.000305,499.550354
	C257.955536,495.715302 256.926361,492.268341 255.852051,488.464722
	C255.137390,486.268890 254.629425,484.349670 253.765732,482.606689
	C251.787003,478.613525 249.634598,474.706390 247.552734,470.764313
	C248.029449,469.451324 248.506149,468.138306 249.080505,466.487091
z"/>
<path fill="#10280D" opacity="1.000000" stroke="none"
	d="
M267.947296,543.895447
	C273.062805,581.330627 277.491852,618.760010 266.985870,656.458740
	C252.902176,656.996338 236.421143,644.765259 232.189407,630.273926
	C235.819473,625.985291 235.999603,621.612488 235.001419,617.007080
	C234.166718,598.123230 233.336761,579.239258 232.488205,560.356018
	C232.421356,558.868408 232.225143,557.386597 232.545776,555.489807
	C244.650742,551.350159 256.299011,547.622803 267.947296,543.895447
z"/>
<path fill="#0F280C" opacity="1.000000" stroke="none"
	d="
M761.384399,657.258301
	C759.901917,649.888428 758.168396,642.747253 757.820984,635.539307
	C757.114380,620.876526 756.839966,606.174194 757.002136,591.494873
	C757.107788,581.930542 758.137695,572.362793 759.057556,562.825928
	C759.641907,556.767761 760.783691,550.763428 762.211304,544.415405
	C774.013977,548.079407 785.280823,552.062927 796.547729,556.046448
	C795.633545,571.469666 794.703308,586.891968 793.815491,602.316711
	C793.560425,606.749207 793.427917,611.188782 793.573547,616.266113
	C791.837769,622.869019 792.633240,627.293823 796.270508,630.049622
	C791.996948,648.288574 777.295349,653.397156 761.384399,657.258301
z"/>
<path fill="#66A763" opacity="1.000000" stroke="none"
	d="
M778.903992,465.637146
	C776.796875,467.065887 774.754028,468.058563 772.358643,469.043579
	C769.761414,457.155853 768.473572,444.997467 765.111816,433.442413
	C747.464905,372.785004 710.101379,327.422211 655.522400,296.411346
	C638.974854,287.009338 620.978882,280.156494 603.325195,271.581940
	C603.884399,269.901855 604.552795,268.169769 605.688110,267.772583
	C608.273987,266.867981 609.445068,265.467621 609.057373,262.775177
	C634.301941,269.109222 657.829590,279.495605 679.624573,293.604004
	C734.297791,328.995270 766.574768,379.053467 776.669678,443.367950
	C777.802917,450.588043 778.219421,457.920624 778.903992,465.637146
z"/>
<path fill="#66A863" opacity="1.000000" stroke="none"
	d="
M608.765747,262.548279
	C609.445068,265.467621 608.273987,266.867981 605.688110,267.772583
	C604.552795,268.169769 603.884399,269.901855 603.001709,271.402039
	C597.635864,270.161255 592.272339,268.546265 586.440247,266.790222
	C573.353882,331.242249 565.493164,395.925262 558.639038,461.495361
	C558.639038,451.694153 558.476196,442.655670 558.681396,433.625580
	C558.923096,422.987976 559.224487,412.339783 559.954285,401.727448
	C562.153503,369.748047 564.210632,337.751648 567.041687,305.825592
	C568.770508,286.328491 571.821777,266.948700 574.365112,247.068146
	C575.560181,247.313828 576.950317,247.777908 577.734375,248.737289
	C584.582825,257.117645 594.109375,259.690674 604.167603,261.222687
	C605.625061,261.444641 607.039612,261.948120 608.765747,262.548279
z"/>
<path fill="#393838" opacity="1.000000" stroke="none"
	d="
M269.910889,657.730347
	C271.451355,655.098755 273.051788,652.799255 275.055359,649.920593
	C277.767792,654.742798 280.265076,659.298157 282.869324,663.791504
	C292.336212,680.125549 305.378723,693.280762 319.969543,704.974060
	C343.312073,723.680847 369.416626,737.898621 396.354858,750.515930
	C410.578186,757.177856 425.510712,762.321289 440.080841,768.253906
	C441.511475,768.836365 442.645813,770.146423 443.972534,771.466064
	C415.375977,764.124268 388.059631,753.025024 361.691071,739.520935
	C344.347839,730.638916 327.820282,720.477905 312.566193,708.288940
	C295.081024,694.317078 280.594696,677.836243 269.910889,657.730347
z"/>
<path fill="#3C3C3C" opacity="1.000000" stroke="none"
	d="
M583.419556,772.148438
	C584.333618,770.818604 585.405029,768.904175 586.978760,768.301514
	C600.431824,763.149475 614.345337,759.045532 627.417908,753.085571
	C657.097534,739.554138 685.812927,724.125427 711.085693,703.197388
	C727.437927,689.656372 741.162537,673.735413 751.142700,654.813660
	C751.805603,653.556885 752.637939,652.389465 753.721497,650.651001
	C755.378296,653.081543 756.652954,654.951416 758.063599,657.173218
	C743.466736,686.552429 720.204651,707.379883 693.144653,724.291931
	C659.076050,745.584290 622.474731,761.280884 583.419556,772.148438
z"/>
<path fill="#376938" opacity="1.000000" stroke="none"
	d="
M247.191666,470.774841
	C249.634598,474.706390 251.787003,478.613525 253.765732,482.606689
	C254.629425,484.349670 255.137390,486.268890 255.485474,488.522339
	C244.783752,493.295166 234.403442,497.653748 224.023148,502.012329
	C219.215363,493.556458 222.175980,486.710663 229.146851,481.517151
	C234.651260,477.416168 240.908005,474.325012 247.191666,470.774841
z"/>
<path fill="#326533" opacity="1.000000" stroke="none"
	d="
M259.015930,499.938385
	C260.327057,505.333649 261.638153,510.728943 262.583618,516.596619
	C251.168091,521.060913 240.118225,525.052856 229.068359,529.044800
	C228.181854,524.080872 227.295334,519.116943 226.804626,513.630249
	C237.805588,508.717834 248.410767,504.328125 259.015930,499.938385
z"/>
<path fill="#366A36" opacity="1.000000" stroke="none"
	d="
M766.070923,516.843445
	C767.341736,511.458496 768.612488,506.073547 770.322388,500.317688
	C774.256897,501.330750 777.780029,502.648987 781.241760,504.112579
	C788.155457,507.035492 795.035339,510.038055 801.929199,513.007751
	C801.204224,518.117371 800.479309,523.226990 799.208130,528.674072
	C787.798218,524.955566 776.934570,520.899475 766.070923,516.843445
z"/>
<path fill="#376938" opacity="1.000000" stroke="none"
	d="
M774.118896,488.877563
	C776.067200,482.794830 778.015503,476.712097 780.028076,470.264832
	C789.052063,473.088501 796.584961,478.284210 802.850220,485.482941
	C807.189392,490.468689 808.614258,495.562134 804.366333,501.675293
	C793.918823,497.555786 784.018860,493.216675 774.118896,488.877563
z"/>
<path fill="#326533" opacity="1.000000" stroke="none"
	d="
M267.898285,543.508057
	C256.299011,547.622803 244.650742,551.350159 232.613525,555.075317
	C231.719589,551.027710 231.214584,546.982178 231.105560,542.359985
	C242.669754,537.810669 253.837967,533.838135 265.006165,529.865601
	C265.953888,534.283936 266.901581,538.702271 267.898285,543.508057
z"/>
<path fill="#366A36" opacity="1.000000" stroke="none"
	d="
M796.676208,555.668823
	C785.280823,552.062927 774.013977,548.079407 762.372925,544.046082
	C762.568604,539.535950 763.138428,535.075623 764.242554,530.262329
	C775.814758,533.925293 786.852600,537.941162 797.890442,541.957092
	C797.528564,546.401794 797.166626,550.846436 796.676208,555.668823
z"/>
<path fill="#11290E" opacity="1.000000" stroke="none"
	d="
M265.004150,529.440918
	C253.837967,533.838135 242.669754,537.810669 231.157242,541.926086
	C230.192825,538.002319 229.572693,533.935608 229.010468,529.456848
	C240.118225,525.052856 251.168091,521.060913 262.584412,516.996277
	C263.634644,520.954407 264.318390,524.985352 265.004150,529.440918
z"/>
<path fill="#11290E" opacity="1.000000" stroke="none"
	d="
M798.020996,541.552734
	C786.852600,537.941162 775.814758,533.925293 764.376953,529.880798
	C764.658508,525.803284 765.339966,521.754272 766.046204,517.274414
	C776.934570,520.899475 787.798218,524.955566 799.061035,529.041382
	C799.023987,533.096924 798.587708,537.122620 798.020996,541.552734
z"/>
<path fill="#11290E" opacity="1.000000" stroke="none"
	d="
M259.000305,499.550354
	C248.410767,504.328125 237.805588,508.717834 226.802643,513.212402
	C225.601379,509.809143 224.797913,506.301086 224.008789,502.402679
	C234.403442,497.653748 244.783752,493.295166 255.530640,488.878967
	C256.926361,492.268341 257.955536,495.715302 259.000305,499.550354
z"/>
<path fill="#11290E" opacity="1.000000" stroke="none"
	d="
M773.786621,489.074585
	C784.018860,493.216675 793.918823,497.555786 804.195374,501.990540
	C803.776062,505.475586 802.980103,508.864899 802.056641,512.630981
	C795.035339,510.038055 788.155457,507.035492 781.241760,504.112579
	C777.780029,502.648987 774.256897,501.330750 770.378174,499.927673
	C771.148071,496.362854 772.301147,492.817200 773.786621,489.074585
z"/>
<path fill="#355A36" opacity="1.000000" stroke="none"
	d="
M225.794312,542.949219
	C226.797989,550.374878 227.801666,557.800537 228.436646,565.592896
	C224.553970,563.577148 221.040009,561.194641 217.526047,558.812134
	C217.253845,552.507324 216.981659,546.202576 217.209076,539.449341
	C220.403915,540.316956 223.099121,541.633118 225.794312,542.949219
z"/>
<path fill="#355A36" opacity="1.000000" stroke="none"
	d="
M230.625763,580.237854
	C231.191681,586.182068 231.757599,592.126221 231.924713,598.395874
	C228.313293,596.791809 225.100677,594.862366 221.888062,592.932922
	C220.902649,586.565308 219.917252,580.197754 219.361938,573.434265
	C223.403290,575.438232 227.014526,577.838074 230.625763,580.237854
z"/>
<path fill="#355A36" opacity="1.000000" stroke="none"
	d="
M811.224487,538.899048
	C811.075623,545.317383 810.926758,551.735657 810.359192,558.689453
	C806.775391,560.840393 803.610352,562.455872 800.445312,564.071350
	C801.264282,556.970520 802.083252,549.869690 803.395874,542.388672
	C806.334534,540.972046 808.779480,539.935547 811.224487,538.899048
z"/>
<path fill="#355A36" opacity="1.000000" stroke="none"
	d="
M808.946045,573.987671
	C808.003662,580.745850 807.061279,587.504089 805.606750,594.651367
	C802.408081,595.701965 799.721497,596.363464 797.034973,597.024963
	C797.444031,591.566956 797.853149,586.108948 798.777344,580.185913
	C802.510315,577.809753 805.728210,575.898743 808.946045,573.987671
z"/>
<path fill="#163012" opacity="1.000000" stroke="none"
	d="
M230.630341,579.767822
	C227.014526,577.838074 223.403290,575.438232 219.448486,573.006104
	C218.552719,568.569031 218.000504,564.164368 217.487167,559.285889
	C221.040009,561.194641 224.553970,563.577148 228.396973,566.006836
	C229.362320,570.468567 229.998627,574.883240 230.630341,579.767822
z"/>
<path fill="#163012" opacity="1.000000" stroke="none"
	d="
M809.078613,573.593079
	C805.728210,575.898743 802.510315,577.809753 798.948364,579.825806
	C799.125427,574.922180 799.646484,569.913574 800.306396,564.488159
	C803.610352,562.455872 806.775391,560.840393 810.255615,559.148926
	C810.117615,563.781433 809.664368,568.489990 809.078613,573.593079
z"/>
<path fill="#1A2A17" opacity="1.000000" stroke="none"
	d="
M221.858566,593.359497
	C225.100677,594.862366 228.313293,596.791809 231.854370,598.849487
	C232.695251,603.109314 233.207672,607.241089 233.278732,611.773071
	C230.273682,611.102478 227.710007,610.031555 225.146347,608.960693
	C224.040588,603.902466 222.934830,598.844238 221.858566,593.359497
z"/>
<path fill="#3C3C3C" opacity="1.000000" stroke="none"
	d="
M225.118744,609.349792
	C227.710007,610.031555 230.273682,611.102478 233.244141,612.251831
	C233.891006,613.815186 234.131088,615.300171 234.686279,616.896118
	C235.999603,621.612488 235.819473,625.985291 232.149506,629.898804
	C229.570557,623.287170 227.330841,616.513062 225.118744,609.349792
z"/>
<path fill="#464A45" opacity="1.000000" stroke="none"
	d="
M216.994492,525.005066
	C217.623825,516.484253 218.253159,507.963470 218.882492,499.442657
	C219.352112,499.445587 219.821716,499.448517 220.291336,499.451447
	C221.481415,508.716888 222.671494,517.982300 223.442719,527.668518
	C221.014053,527.061218 219.004272,526.033142 216.994492,525.005066
z"/>
<path fill="#464A45" opacity="1.000000" stroke="none"
	d="
M796.534058,629.819153
	C792.633240,627.293823 791.837769,622.869019 793.940491,616.500488
	C794.346741,614.626831 794.720398,613.159851 795.586975,611.334778
	C798.341919,610.302429 800.603821,609.628113 802.865784,608.953796
	C800.843018,615.832092 798.820251,622.710388 796.534058,629.819153
z"/>
<path fill="#11290E" opacity="1.000000" stroke="none"
	d="
M802.999390,608.589111
	C800.603821,609.628113 798.341919,610.302429 795.716187,610.952515
	C795.800537,606.539673 796.248596,602.151123 796.865845,597.393738
	C799.721497,596.363464 802.408081,595.701965 805.470398,595.036743
	C804.941772,599.430176 804.037354,603.827332 802.999390,608.589111
z"/>
<path fill="#0F280C" opacity="1.000000" stroke="none"
	d="
M811.391785,538.470825
	C808.779480,539.935547 806.334534,540.972046 803.524597,541.983154
	C803.761536,537.257019 804.363464,532.556335 805.442139,527.479126
	C807.742432,526.775574 809.566040,526.448547 811.389587,526.121521
	C811.446106,530.095215 811.502563,534.068909 811.391785,538.470825
z"/>
<path fill="#464A45" opacity="1.000000" stroke="none"
	d="
M811.488342,525.710510
	C809.566040,526.448547 807.742432,526.775574 805.559692,527.080078
	C806.148193,518.162964 807.095825,509.268463 808.043518,500.373962
	C808.464172,500.343323 808.884766,500.312714 809.305420,500.282104
	C810.065979,508.621246 810.826538,516.960388 811.488342,525.710510
z"/>
<path fill="#10280D" opacity="1.000000" stroke="none"
	d="
M216.891632,525.459351
	C219.004272,526.033142 221.014053,527.061218 223.370056,528.085205
	C224.429947,532.768982 225.143600,537.456848 225.825790,542.546997
	C223.099121,541.633118 220.403915,540.316956 217.342804,538.996826
	C216.914215,534.633118 216.851486,530.273376 216.891632,525.459351
z"/>
<path fill="#212020" opacity="1.000000" stroke="none"
	d="
M547.393311,780.665283
	C547.367920,780.431519 547.628906,780.203857 548.028992,780.174255
	C548.005310,780.472046 547.842468,780.571777 547.393311,780.665283
z"/>
<path fill="#E8EBE8" opacity="1.000000" stroke="none"
	d="
M350.767151,639.110291
	C338.890625,630.599426 326.968628,622.150452 315.194641,613.500000
	C313.710571,612.409668 312.609619,610.393738 311.996552,608.581543
	C298.887360,569.830078 292.491974,530.163147 295.657867,489.156952
	C296.014679,484.535370 298.085358,481.916412 301.922729,479.879059
	C326.635895,466.758179 353.044220,461.970795 380.698242,464.572723
	C415.185577,467.817596 446.272736,481.336304 476.152771,497.892670
	C488.076721,504.499664 499.584930,511.871948 511.125183,519.145203
	C513.782654,520.820129 515.501709,520.842896 518.125732,519.108826
	C541.352356,503.759583 565.427368,489.934875 591.339417,479.554626
	C616.126099,469.625183 641.580933,462.802917 668.595642,464.108093
	C689.324951,465.109619 709.012207,470.090454 727.325134,480.137238
	C731.060791,482.186676 732.789673,484.861420 733.122009,489.168121
	C736.258240,529.805420 730.290955,569.216248 717.131348,607.608032
	C715.925842,611.124878 712.983765,614.444214 710.051636,616.906982
	C690.822388,633.057861 669.252563,645.609131 646.996826,657.039673
	C622.231934,669.758972 596.677856,680.561035 570.067200,688.846985
	C568.011475,689.487061 565.828674,691.415466 564.783752,693.333008
	C557.380310,706.918762 550.197205,720.626221 543.091614,734.371277
	C541.384766,737.672974 539.165161,739.468933 535.340027,739.440247
	C521.530701,739.336487 507.720032,739.286316 493.910736,739.366150
	C489.821747,739.389832 487.595642,737.353699 485.843689,733.935486
	C479.242096,721.055237 472.356628,708.318909 465.876526,695.378906
	C463.960266,691.552429 461.560577,689.420410 457.405792,687.922546
	C440.045074,681.664062 422.885773,674.846741 405.516205,667.751892
	C405.970917,665.699036 406.562042,664.128479 407.521362,662.653992
	C426.239319,669.611023 444.630707,676.364929 462.889740,683.459290
	C465.367340,684.421936 467.918854,686.693054 469.181946,689.034851
	C476.357819,702.339294 483.036438,715.911926 490.204895,729.220581
	C491.252228,731.165039 493.978119,733.372986 495.992401,733.437866
	C508.295197,733.834473 520.621155,733.811462 532.927673,733.484924
	C534.856750,733.433716 537.529114,731.556519 538.494080,729.782166
	C545.559509,716.789612 552.414124,703.676392 559.021484,690.444580
	C561.020813,686.440918 563.415955,683.923157 567.938416,682.779114
	C574.687683,681.071960 581.426941,679.013733 587.827209,676.296509
	C606.787659,668.246887 625.580017,659.801331 644.657227,651.476685
	C650.300049,648.483704 655.723755,645.524658 661.485718,642.433411
	C676.456665,632.493713 691.185547,622.823975 705.635681,612.754395
	C708.302307,610.896179 710.701843,607.719910 711.770325,604.646362
	C723.361633,571.301575 729.188782,536.916504 727.709045,501.629608
	C726.950623,483.541565 730.695435,487.614716 712.511353,479.920197
	C679.291748,465.863403 645.549744,467.848358 611.893738,478.585907
	C578.637024,489.196075 548.626953,506.313507 519.694763,525.442566
	C515.883240,527.962646 513.356384,527.911560 509.575989,525.395447
	C481.526459,506.726501 452.343689,490.188110 420.215973,479.415955
	C385.315369,467.714050 350.364044,465.720551 315.767731,480.144562
	C298.935577,487.162323 302.005219,483.434937 301.231384,500.729553
	C299.651276,536.042725 305.644196,570.377686 316.798370,603.823303
	C317.784210,606.779358 319.898163,609.856018 322.359344,611.736267
	C332.388306,619.398071 342.756409,626.616028 352.999695,634.380981
	C352.255615,636.213013 351.511383,637.661621 350.767151,639.110291
z"/>
<path fill="#E2ECE0" opacity="1.000000" stroke="none"
	d="
M407.153137,662.557983
	C406.562042,664.128479 405.970917,665.699036 405.208435,667.590393
	C387.079620,658.497925 369.122162,649.084534 350.965942,639.390747
	C351.511383,637.661621 352.255615,636.213013 353.344971,634.440674
	C360.126617,637.769287 366.563110,641.421631 373.197693,645.359131
	C377.769531,647.831909 382.143250,650.019470 386.757629,652.486450
	C393.716583,656.029907 400.434875,659.293945 407.153137,662.557983
z"/>
<path fill="#0D0D0C" opacity="1.000000" stroke="none"
	d="
M372.999603,645.073914
	C366.563110,641.421631 360.126617,637.769287 353.344818,634.057251
	C342.756409,626.616028 332.388306,619.398071 322.359344,611.736267
	C319.898163,609.856018 317.784210,606.779358 316.798370,603.823303
	C305.644196,570.377686 299.651276,536.042725 301.231384,500.729553
	C302.005219,483.434937 298.935577,487.162323 315.767731,480.144562
	C350.364044,465.720551 385.315369,467.714050 420.215973,479.415955
	C452.343689,490.188110 481.526459,506.726501 509.575989,525.395447
	C513.356384,527.911560 515.883240,527.962646 519.694763,525.442566
	C548.626953,506.313507 578.637024,489.196075 611.893738,478.585907
	C645.549744,467.848358 679.291748,465.863403 712.511353,479.920197
	C730.695435,487.614716 726.950623,483.541565 727.709045,501.629608
	C729.188782,536.916504 723.361633,571.301575 711.770325,604.646362
	C710.701843,607.719910 708.302307,610.896179 705.635681,612.754395
	C691.185547,622.823975 676.456665,632.493713 661.474365,642.034912
	C665.309204,635.572876 669.462280,629.355713 673.694214,623.192688
	C675.254456,620.920593 677.758911,619.012390 678.531738,616.532715
	C682.019043,605.344360 685.536194,594.118896 688.029602,582.685913
	C689.373230,576.525208 689.555298,569.802490 688.723206,563.537659
	C686.745728,548.649902 684.221497,534.005493 677.492615,520.040039
	C671.519958,507.643982 662.574158,498.685883 651.217712,492.577545
	C638.363281,485.663483 623.891663,487.658447 609.885193,489.282898
	C608.663635,489.424530 607.523010,490.431000 606.385620,491.104767
	C599.295837,495.304779 594.504456,501.989136 588.567871,507.365570
	C582.840698,512.552490 579.372375,518.574097 576.464783,525.192993
	C571.907837,535.566345 569.648315,546.401733 568.571228,557.827148
	C566.898560,575.570312 569.228455,592.520630 575.120544,609.039551
	C580.499512,624.120056 590.217102,636.325684 603.250427,645.462463
	C608.821045,649.367676 614.738770,652.952148 622.855835,651.368042
	C629.776978,650.017212 637.223816,651.359619 644.438110,651.510620
	C625.580017,659.801331 606.787659,668.246887 587.827209,676.296509
	C581.426941,679.013733 574.687683,681.071960 567.938416,682.779114
	C563.415955,683.923157 561.020813,686.440918 559.021484,690.444580
	C552.414124,703.676392 545.559509,716.789612 538.494080,729.782166
	C537.529114,731.556519 534.856750,733.433716 532.927673,733.484924
	C520.621155,733.811462 508.295197,733.834473 495.992401,733.437866
	C493.978119,733.372986 491.252228,731.165039 490.204895,729.220581
	C483.036438,715.911926 476.357819,702.339294 469.181946,689.034851
	C467.918854,686.693054 465.367340,684.421936 462.889740,683.459290
	C444.630707,676.364929 426.239319,669.611023 407.521362,662.653992
	C400.434875,659.293945 393.716583,656.029907 387.191101,652.400635
	C390.149323,651.819458 392.921936,651.670715 395.678833,651.375061
	C403.648254,650.520569 411.865662,650.558716 419.522675,648.513245
	C434.334534,644.556396 442.892059,632.507874 450.017487,620.299133
	C457.913879,606.769470 462.492645,591.710632 461.936096,575.685669
	C461.632080,566.931885 460.740753,558.195190 460.001038,549.460449
	C458.775391,534.987793 453.979279,521.787476 445.528656,509.961487
	C444.603302,508.666504 443.296448,507.616058 442.063141,506.574585
	C438.563110,503.619049 434.101135,501.326233 431.688873,497.670013
	C428.028748,492.122406 422.451904,489.994659 417.099030,489.324036
	C404.904938,487.796356 392.301849,485.757721 380.696930,492.297211
	C375.103699,495.448975 368.896088,498.203583 364.530762,502.667542
	C358.966064,508.357880 354.942169,515.406250 351.069519,522.676025
	C344.590973,534.837769 342.823120,547.686890 341.011292,560.776611
	C340.765015,562.555908 340.577515,564.364380 340.599396,566.156433
	C340.753815,578.787476 342.354889,591.221375 346.004150,603.341980
	C347.805603,609.325317 348.820648,615.808594 351.889801,621.076111
	C355.230225,626.809265 360.485016,631.445129 365.035553,636.440552
	C365.996979,637.495972 367.432190,638.387573 368.807587,638.745422
	C372.241821,639.638916 373.288727,641.849121 372.999603,645.073914
z"/>
<path fill="#10160E" opacity="1.000000" stroke="none"
	d="
M644.657227,651.476685
	C637.223816,651.359619 629.776978,650.017212 622.855835,651.368042
	C614.738770,652.952148 608.821045,649.367676 603.250427,645.462463
	C590.217102,636.325684 580.499512,624.120056 575.120544,609.039551
	C569.228455,592.520630 566.898560,575.570312 568.571228,557.827148
	C569.648315,546.401733 571.907837,535.566345 576.464783,525.192993
	C579.372375,518.574097 582.840698,512.552490 588.567871,507.365570
	C594.504456,501.989136 599.295837,495.304779 606.385620,491.104767
	C607.523010,490.431000 608.663635,489.424530 609.885193,489.282898
	C623.891663,487.658447 638.363281,485.663483 651.217712,492.577545
	C662.574158,498.685883 671.519958,507.643982 677.492615,520.040039
	C684.221497,534.005493 686.745728,548.649902 688.723206,563.537659
	C689.555298,569.802490 689.373230,576.525208 688.029602,582.685913
	C685.536194,594.118896 682.019043,605.344360 678.531738,616.532715
	C677.758911,619.012390 675.254456,620.920593 673.694214,623.192688
	C669.462280,629.355713 665.309204,635.572876 661.136169,642.167114
	C655.723755,645.524658 650.300049,648.483704 644.657227,651.476685
M603.034180,501.466034
	C596.128845,509.407684 587.415771,515.820312 583.023010,525.877991
	C573.477356,547.733765 571.714844,570.276001 576.684204,593.465820
	C579.232910,605.359741 584.409485,616.234680 591.693298,625.738525
	C597.606323,633.453735 604.997498,639.926697 614.868591,642.933411
	C622.187134,645.162598 629.514526,645.018860 636.768616,643.846924
	C641.704163,643.049438 647.491394,642.051453 651.018250,638.982788
	C664.134033,627.571106 675.240479,614.514771 678.920471,596.659912
	C683.593750,573.985657 684.291931,551.508484 674.966736,529.787170
	C670.516907,519.421997 664.819702,509.739227 654.781433,503.386780
	C646.617554,498.220551 637.924194,495.526764 628.257568,494.694641
	C619.071350,493.903839 610.878479,495.287415 603.034180,501.466034
z"/>
<path fill="#0F150D" opacity="1.000000" stroke="none"
	d="
M373.197693,645.359131
	C373.288727,641.849121 372.241821,639.638916 368.807587,638.745422
	C367.432190,638.387573 365.996979,637.495972 365.035553,636.440552
	C360.485016,631.445129 355.230225,626.809265 351.889801,621.076111
	C348.820648,615.808594 347.805603,609.325317 346.004150,603.341980
	C342.354889,591.221375 340.753815,578.787476 340.599396,566.156433
	C340.577515,564.364380 340.765015,562.555908 341.011292,560.776611
	C342.823120,547.686890 344.590973,534.837769 351.069519,522.676025
	C354.942169,515.406250 358.966064,508.357880 364.530762,502.667542
	C368.896088,498.203583 375.103699,495.448975 380.696930,492.297211
	C392.301849,485.757721 404.904938,487.796356 417.099030,489.324036
	C422.451904,489.994659 428.028748,492.122406 431.688873,497.670013
	C434.101135,501.326233 438.563110,503.619049 442.063141,506.574585
	C443.296448,507.616058 444.603302,508.666504 445.528656,509.961487
	C453.979279,521.787476 458.775391,534.987793 460.001038,549.460449
	C460.740753,558.195190 461.632080,566.931885 461.936096,575.685669
	C462.492645,591.710632 457.913879,606.769470 450.017487,620.299133
	C442.892059,632.507874 434.334534,644.556396 419.522675,648.513245
	C411.865662,650.558716 403.648254,650.520569 395.678833,651.375061
	C392.921936,651.670715 390.149323,651.819458 386.950439,652.121216
	C382.143250,650.019470 377.769531,647.831909 373.197693,645.359131
M450.219513,533.315979
	C448.478577,529.375916 447.529480,524.753723 444.839600,521.631104
	C438.296326,514.035339 431.180634,506.879791 423.802216,500.082397
	C420.874969,497.385651 416.787079,494.833313 412.979218,494.400513
	C396.262177,492.500427 380.184784,494.428162 367.971527,507.650146
	C354.731171,521.984070 348.751312,539.671997 347.121185,558.729187
	C345.705597,575.278503 348.893341,591.381531 353.449829,607.322083
	C355.498352,614.488770 358.792145,620.478333 364.050354,625.531189
	C367.876160,629.207581 371.615143,633.007202 375.719604,636.350708
	C379.215546,639.198547 382.871094,642.545044 387.011566,643.730530
	C392.140625,645.199158 397.898865,645.322449 403.285553,644.861450
	C414.369568,643.912842 424.737000,640.659058 432.967743,632.535889
	C445.414856,620.251526 451.939362,604.778564 454.740387,588.063660
	C457.781647,569.915039 456.995544,551.651245 450.219513,533.315979
z"/>
<path fill="#152013" opacity="1.000000" stroke="none"
	d="
M603.288818,501.212128
	C610.878479,495.287415 619.071350,493.903839 628.257568,494.694641
	C637.924194,495.526764 646.617554,498.220551 654.781433,503.386780
	C664.819702,509.739227 670.516907,519.421997 674.966736,529.787170
	C684.291931,551.508484 683.593750,573.985657 678.920471,596.659912
	C675.240479,614.514771 664.134033,627.571106 651.018250,638.982788
	C647.491394,642.051453 641.704163,643.049438 636.768616,643.846924
	C629.514526,645.018860 622.187134,645.162598 614.868591,642.933411
	C604.997498,639.926697 597.606323,633.453735 591.693298,625.738525
	C584.409485,616.234680 579.232910,605.359741 576.684204,593.465820
	C571.714844,570.276001 573.477356,547.733765 583.023010,525.877991
	C587.415771,515.820312 596.128845,509.407684 603.288818,501.212128
M640.188660,502.086761
	C630.421326,499.376648 619.811462,497.022095 611.253540,502.860840
	C602.842773,508.599304 595.184509,516.433472 589.481689,524.889526
	C582.809631,534.782715 581.200806,546.896423 579.583008,558.913269
	C576.666565,580.574829 581.560974,600.627686 592.578308,618.445801
	C600.427979,631.140930 612.267273,641.183899 629.612610,639.024231
	C631.088684,638.840454 632.614563,638.901794 634.104797,639.014404
	C640.383789,639.489197 645.366699,636.815186 649.796082,632.711304
	C650.768860,631.810059 651.852234,631.024231 652.792664,630.092407
	C661.238647,621.723999 669.168762,613.500793 672.496399,601.093811
	C676.223022,587.199158 677.751038,573.497925 677.095337,559.242615
	C676.351318,543.069214 671.025818,528.415161 661.084167,516.185791
	C656.164429,510.134003 647.734497,506.935822 640.188660,502.086761
z"/>
<path fill="#141F12" opacity="1.000000" stroke="none"
	d="
M450.368469,533.679321
	C456.995544,551.651245 457.781647,569.915039 454.740387,588.063660
	C451.939362,604.778564 445.414856,620.251526 432.967743,632.535889
	C424.737000,640.659058 414.369568,643.912842 403.285553,644.861450
	C397.898865,645.322449 392.140625,645.199158 387.011566,643.730530
	C382.871094,642.545044 379.215546,639.198547 375.719604,636.350708
	C371.615143,633.007202 367.876160,629.207581 364.050354,625.531189
	C358.792145,620.478333 355.498352,614.488770 353.449829,607.322083
	C348.893341,591.381531 345.705597,575.278503 347.121185,558.729187
	C348.751312,539.671997 354.731171,521.984070 367.971527,507.650146
	C380.184784,494.428162 396.262177,492.500427 412.979218,494.400513
	C416.787079,494.833313 420.874969,497.385651 423.802216,500.082397
	C431.180634,506.879791 438.296326,514.035339 444.839600,521.631104
	C447.529480,524.753723 448.478577,529.375916 450.368469,533.679321
M415.647095,500.732880
	C408.280243,496.476929 400.355103,498.286072 392.974213,499.724152
	C372.329498,503.746613 362.293579,518.801636 355.928467,537.310181
	C351.020264,551.582153 350.933411,566.353027 352.266113,580.970398
	C353.142853,590.586426 355.905762,600.171204 358.915314,609.414673
	C362.299805,619.809692 371.330383,626.056702 379.149994,632.917236
	C382.538544,635.890137 386.763031,639.034851 390.997009,639.729675
	C412.119324,643.195740 431.454620,632.809875 441.142578,613.701721
	C449.993073,596.245239 453.513306,577.814514 450.981537,558.375061
	C448.680939,540.710754 444.934143,523.594482 430.026703,511.552826
	C425.548706,507.935699 420.934509,504.487183 415.647095,500.732880
z"/>
<path fill="#1D301A" opacity="1.000000" stroke="none"
	d="
M640.540649,502.266663
	C647.734497,506.935822 656.164429,510.134003 661.084167,516.185791
	C671.025818,528.415161 676.351318,543.069214 677.095337,559.242615
	C677.751038,573.497925 676.223022,587.199158 672.496399,601.093811
	C669.168762,613.500793 661.238647,621.723999 652.792664,630.092407
	C651.852234,631.024231 650.768860,631.810059 649.796082,632.711304
	C645.366699,636.815186 640.383789,639.489197 634.104797,639.014404
	C632.614563,638.901794 631.088684,638.840454 629.612610,639.024231
	C612.267273,641.183899 600.427979,631.140930 592.578308,618.445801
	C581.560974,600.627686 576.666565,580.574829 579.583008,558.913269
	C581.200806,546.896423 582.809631,534.782715 589.481689,524.889526
	C595.184509,516.433472 602.842773,508.599304 611.253540,502.860840
	C619.811462,497.022095 630.421326,499.376648 640.540649,502.266663
M646.189453,514.792603
	C639.062622,507.824524 630.536194,503.794769 621.044800,507.932159
	C615.282959,510.443756 610.783508,515.851257 605.017456,519.988647
	C596.087158,523.086975 591.661255,529.800476 589.986267,538.720215
	C589.162964,543.104614 588.964355,547.727295 587.395325,551.825745
	C583.950989,560.822693 583.759399,570.349854 585.268188,579.188904
	C587.222778,590.639709 591.416809,601.830872 595.721863,612.708374
	C598.024048,618.525208 602.566772,623.473511 610.759094,623.223877
	C616.721008,628.863159 623.642761,631.897644 632.180542,631.789246
	C636.883972,633.986511 642.590637,631.983093 645.950562,627.681396
	C650.071960,622.404724 654.761414,617.575623 659.018921,612.399780
	C661.302979,609.622986 663.721985,606.761108 665.174683,603.530518
	C671.448486,589.578186 671.537659,574.757507 671.089417,559.793213
	C670.631226,544.498535 663.711487,531.866455 656.002747,519.372009
	C653.742432,515.708496 650.754456,514.562744 646.189453,514.792603
z"/>
<path fill="#1A2A17" opacity="1.000000" stroke="none"
	d="
M416.014893,500.847168
	C420.934509,504.487183 425.548706,507.935699 430.026703,511.552826
	C444.934143,523.594482 448.680939,540.710754 450.981537,558.375061
	C453.513306,577.814514 449.993073,596.245239 441.142578,613.701721
	C431.454620,632.809875 412.119324,643.195740 390.997009,639.729675
	C386.763031,639.034851 382.538544,635.890137 379.149994,632.917236
	C371.330383,626.056702 362.299805,619.809692 358.915314,609.414673
	C355.905762,600.171204 353.142853,590.586426 352.266113,580.970398
	C350.933411,566.353027 351.020264,551.582153 355.928467,537.310181
	C362.293579,518.801636 372.329498,503.746613 392.974213,499.724152
	C400.355103,498.286072 408.280243,496.476929 416.014893,500.847168
M396.832184,505.738312
	C394.122009,505.539917 390.998901,504.381622 388.783966,505.334473
	C383.478577,507.616821 378.574097,510.847717 373.572693,513.805542
	C372.624023,514.366577 371.867157,515.356445 371.203583,516.279175
	C360.834534,530.697266 356.154602,547.022339 355.023438,564.550537
	C354.179077,577.635376 357.934357,590.023987 360.775604,602.529907
	C363.453491,614.316833 372.938324,621.068542 380.878967,628.998413
	C391.737976,639.842590 404.199036,635.301147 416.469086,633.238403
	C423.590485,625.943970 431.623688,619.317505 437.587677,611.175293
	C444.104858,602.277954 445.256531,590.969360 447.193390,580.206238
	C450.222748,563.371826 445.751129,547.613708 440.430237,532.049011
	C436.387695,520.223755 425.878906,513.728088 416.906403,506.281036
	C413.962463,503.837646 408.870850,503.769745 404.681885,503.185059
	C403.612091,503.035736 402.239014,505.059082 400.243591,506.241943
	C399.211578,506.332642 398.179535,506.423309 396.832184,505.738312
z"/>
<path fill="#70DE72" opacity="1.000000" stroke="none"
	d="
M631.995300,631.049561
	C623.642761,631.897644 616.721008,628.863159 610.316162,622.764648
	C605.888489,615.455994 600.555298,609.045288 598.158203,601.679077
	C589.001404,573.541199 590.368713,546.008850 605.716980,519.957825
	C610.783508,515.851257 615.282959,510.443756 621.044800,507.932159
	C630.536194,503.794769 639.062622,507.824524 646.625000,515.263916
	C649.783142,519.903320 653.107056,523.800232 655.128784,528.284241
	C666.510986,553.529175 666.800842,579.287659 656.895020,604.945801
	C652.315613,616.807251 645.417297,627.244263 631.995300,631.049561
z"/>
<path fill="#274323" opacity="1.000000" stroke="none"
	d="
M632.087891,631.419434
	C645.417297,627.244263 652.315613,616.807251 656.895020,604.945801
	C666.800842,579.287659 666.510986,553.529175 655.128784,528.284241
	C653.107056,523.800232 649.783142,519.903320 646.914185,515.424805
	C650.754456,514.562744 653.742432,515.708496 656.002747,519.372009
	C663.711487,531.866455 670.631226,544.498535 671.089417,559.793213
	C671.537659,574.757507 671.448486,589.578186 665.174683,603.530518
	C663.721985,606.761108 661.302979,609.622986 659.018921,612.399780
	C654.761414,617.575623 650.071960,622.404724 645.950562,627.681396
	C642.590637,631.983093 636.883972,633.986511 632.087891,631.419434
z"/>
<path fill="#274323" opacity="1.000000" stroke="none"
	d="
M605.367188,519.973267
	C590.368713,546.008850 589.001404,573.541199 598.158203,601.679077
	C600.555298,609.045288 605.888489,615.455994 610.020325,622.612427
	C602.566772,623.473511 598.024048,618.525208 595.721863,612.708374
	C591.416809,601.830872 587.222778,590.639709 585.268188,579.188904
	C583.759399,570.349854 583.950989,560.822693 587.395325,551.825745
	C588.964355,547.727295 589.162964,543.104614 589.986267,538.720215
	C591.661255,529.800476 596.087158,523.086975 605.367188,519.973267
z"/>
<path fill="#70DF72" opacity="1.000000" stroke="none"
	d="
M397.147522,506.513977
	C398.179535,506.423309 399.211578,506.332642 400.981720,506.298706
	C407.633911,506.887848 412.939301,508.924377 417.071198,513.260498
	C419.990265,516.323792 422.562836,519.717285 425.380371,523.291016
	C427.999359,529.756165 431.306305,535.696655 432.918976,542.066101
	C439.176880,566.782166 437.575653,590.902466 425.604187,614.145630
	C422.873871,617.477173 420.681091,620.881226 417.883148,623.680298
	C408.178558,633.389221 395.412170,633.786499 385.302002,624.490112
	C381.673706,621.153809 378.912201,616.874817 375.674500,612.690674
	C360.995331,579.687256 360.939514,547.797302 380.956116,516.729004
	C386.525543,513.164978 391.836517,509.839508 397.147522,506.513977
z"/>
<path fill="#20371D" opacity="1.000000" stroke="none"
	d="
M425.290070,522.963440
	C422.562836,519.717285 419.990265,516.323792 417.071198,513.260498
	C412.939301,508.924377 407.633911,506.887848 401.362579,506.219849
	C402.239014,505.059082 403.612091,503.035736 404.681885,503.185059
	C408.870850,503.769745 413.962463,503.837646 416.906403,506.281036
	C425.878906,513.728088 436.387695,520.223755 440.430237,532.049011
	C445.751129,547.613708 450.222748,563.371826 447.193390,580.206238
	C445.256531,590.969360 444.104858,602.277954 437.587677,611.175293
	C431.623688,619.317505 423.590485,625.943970 416.469086,633.238403
	C404.199036,635.301147 391.737976,639.842590 380.878967,628.998413
	C372.938324,621.068542 363.453491,614.316833 360.775604,602.529907
	C357.934357,590.023987 354.179077,577.635376 355.023438,564.550537
	C356.154602,547.022339 360.834534,530.697266 371.203583,516.279175
	C371.867157,515.356445 372.624023,514.366577 373.572693,513.805542
	C378.574097,510.847717 383.478577,507.616821 388.783966,505.334473
	C390.998901,504.381622 394.122009,505.539917 396.989868,506.126160
	C391.836517,509.839508 386.525543,513.164978 380.581360,516.734985
	C378.044006,517.741699 375.905762,518.174561 374.280884,519.329651
	C369.897614,522.445496 369.408112,527.542480 367.937408,532.251953
	C366.475677,536.932800 363.233887,541.123474 362.150146,545.845276
	C357.273834,567.091003 361.001556,587.740906 367.607605,608.037659
	C368.807434,611.724060 371.688538,613.568054 375.755127,613.026062
	C378.912201,616.874817 381.673706,621.153809 385.302002,624.490112
	C395.412170,633.786499 408.178558,633.389221 417.883148,623.680298
	C420.681091,620.881226 422.873871,617.477173 425.996613,614.161743
	C432.077087,614.032166 434.638916,609.714294 435.643188,605.931152
	C438.646149,594.618713 441.569611,583.122559 442.659119,571.523010
	C443.362915,564.030579 441.280670,556.118103 439.548828,548.600830
	C437.906586,541.472473 435.292755,534.538940 432.706177,527.670349
	C431.551971,524.605408 429.036865,522.521667 425.290070,522.963440
z"/>
<path fill="#284624" opacity="1.000000" stroke="none"
	d="
M425.380371,523.291016
	C429.036865,522.521667 431.551971,524.605408 432.706177,527.670349
	C435.292755,534.538940 437.906586,541.472473 439.548828,548.600830
	C441.280670,556.118103 443.362915,564.030579 442.659119,571.523010
	C441.569611,583.122559 438.646149,594.618713 435.643188,605.931152
	C434.638916,609.714294 432.077087,614.032166 426.256714,613.956909
	C437.575653,590.902466 439.176880,566.782166 432.918976,542.066101
	C431.306305,535.696655 427.999359,529.756165 425.380371,523.291016
z"/>
<path fill="#274323" opacity="1.000000" stroke="none"
	d="
M375.674500,612.690674
	C371.688538,613.568054 368.807434,611.724060 367.607605,608.037659
	C361.001556,587.740906 357.273834,567.091003 362.150146,545.845276
	C363.233887,541.123474 366.475677,536.932800 367.937408,532.251953
	C369.408112,527.542480 369.897614,522.445496 374.280884,519.329651
	C375.905762,518.174561 378.044006,517.741699 380.322937,516.973450
	C360.939514,547.797302 360.995331,579.687256 375.674500,612.690674
z"/>
</svg>